<svg fill="none" height="110" width="278" xmlns="http://www.w3.org/2000/svg"><path d="M136.206 80h-2.802l4.269-12.364h3.368L145.303 80h-2.801l-3.097-9.538h-.096zm-.175-4.86h6.616v2.04h-6.616zm10.59 4.86V67.636h4.878c.934 0 1.731.167 2.391.501.664.33 1.169.8 1.515 1.407.35.604.525 1.314.525 2.131 0 .821-.177 1.527-.531 2.119-.354.588-.867 1.038-1.539 1.352-.668.314-1.477.471-2.427.471h-3.266v-2.1h2.843c.499 0 .914-.07 1.244-.206.33-.137.575-.342.736-.616.165-.273.248-.613.248-1.02 0-.41-.083-.757-.248-1.038a1.517 1.517 0 0 0-.742-.64c-.33-.15-.747-.224-1.25-.224h-1.763V80zm6.677-5.626L156.371 80h-2.886l-3.006-5.626zM162.16 80h-4.382V67.636h4.419c1.243 0 2.314.248 3.211.743a5.007 5.007 0 0 1 2.071 2.119c.487.921.73 2.024.73 3.308 0 1.288-.243 2.395-.73 3.32a5.018 5.018 0 0 1-2.083 2.131c-.901.495-1.98.743-3.236.743zm-1.768-2.24h1.66c.772 0 1.422-.136 1.95-.41.531-.278.929-.706 1.195-1.286.27-.584.404-1.336.404-2.258 0-.913-.134-1.66-.404-2.24-.266-.58-.662-1.006-1.189-1.28-.527-.273-1.177-.41-1.95-.41h-1.666zm17.221-10.124h2.613v8.03c0 .901-.215 1.69-.645 2.366-.427.676-1.025 1.203-1.793 1.582-.769.374-1.665.561-2.687.561-1.026 0-1.924-.187-2.692-.561-.769-.379-1.367-.906-1.793-1.582-.427-.676-.64-1.465-.64-2.367v-8.029h2.614v7.806c0 .471.102.89.308 1.256.209.366.503.654.881.863.378.21.819.314 1.322.314.507 0 .948-.105 1.322-.314.379-.21.67-.497.876-.863.209-.366.314-.785.314-1.256zm7.378 0V80h-2.614V67.636zm12.492 0V80h-2.258l-5.379-7.782h-.09V80h-2.614V67.636h2.294l5.336 7.776h.109v-7.776zm13.011 6.182c0 1.348-.255 2.495-.766 3.441-.508.946-1.2 1.668-2.077 2.168-.873.494-1.855.742-2.946.742-1.099 0-2.085-.25-2.958-.748-.874-.5-1.564-1.222-2.071-2.168s-.761-2.09-.761-3.435c0-1.348.254-2.495.761-3.44.507-.947 1.197-1.667 2.071-2.162.873-.5 1.859-.749 2.958-.749 1.091 0 2.073.25 2.946.749.877.495 1.569 1.215 2.077 2.161.511.946.766 2.093.766 3.441zm-2.65 0c0-.873-.131-1.61-.392-2.21-.258-.599-.622-1.054-1.093-1.364s-1.022-.465-1.654-.465-1.183.155-1.654.465-.837.765-1.099 1.365c-.258.6-.386 1.336-.386 2.21 0 .873.128 1.609.386 2.209.262.6.628 1.054 1.099 1.364s1.022.465 1.654.465 1.183-.155 1.654-.465.835-.765 1.093-1.364c.261-.6.392-1.337.392-2.21z" fill="#00878f"/><path d="M140.782 87.192c-.049-.487-.256-.865-.622-1.135s-.863-.404-1.491-.404c-.427 0-.787.06-1.081.18a1.52 1.52 0 0 0-.676.49c-.153.21-.229.447-.229.712-.009.222.038.415.138.58.105.165.248.308.429.428.181.117.39.22.628.308.237.085.491.157.76.218l1.111.265a7.8 7.8 0 0 1 1.485.483c.451.201.842.449 1.172.743.33.293.585.64.766 1.038.185.398.28.855.284 1.37-.004.757-.197 1.413-.58 1.968-.378.552-.925.98-1.642 1.286-.712.302-1.571.453-2.577.453-.999 0-1.868-.153-2.608-.459-.737-.306-1.312-.758-1.727-1.358-.41-.604-.626-1.35-.646-2.24h2.53c.028.415.147.76.356 1.039.213.273.497.48.851.621a3.38 3.38 0 0 0 1.213.206c.443 0 .827-.065 1.153-.194.33-.128.586-.307.767-.537s.272-.493.272-.79c0-.278-.083-.512-.248-.7-.161-.19-.398-.351-.712-.484a7.245 7.245 0 0 0-1.141-.362l-1.346-.338c-1.043-.254-1.866-.65-2.469-1.19-.604-.539-.904-1.265-.9-2.179-.004-.748.195-1.402.598-1.962.406-.56.964-.996 1.672-1.31s1.513-.47 2.415-.47c.917 0 1.718.156 2.402.47.689.314 1.224.75 1.606 1.31.383.56.58 1.208.592 1.944zm2.771-1.4v-2.156h10.154v2.156h-3.785V96h-2.584V85.791h-3.785zM154.961 96h-2.801l4.268-12.364h3.368L164.058 96h-2.801l-3.097-9.538h-.096zm-.175-4.86h6.616v2.04h-6.616zm20.238-3.175h-2.644a2.578 2.578 0 0 0-.296-.912 2.318 2.318 0 0 0-.573-.688 2.528 2.528 0 0 0-.809-.435c-.302-.1-.63-.15-.984-.15-.64 0-1.198.158-1.673.476-.474.314-.843.773-1.104 1.377-.262.6-.393 1.328-.393 2.185 0 .882.131 1.622.393 2.222.265.6.636 1.052 1.111 1.358.474.306 1.024.459 1.648.459.35 0 .674-.046.972-.139.301-.093.569-.227.802-.404.234-.181.427-.4.58-.658.157-.258.266-.552.326-.882l2.644.012a4.94 4.94 0 0 1-1.606 3.049c-.454.41-.998.736-1.63.978-.627.237-1.338.356-2.131.356-1.102 0-2.088-.25-2.958-.748-.865-.5-1.549-1.222-2.052-2.168-.499-.946-.749-2.09-.749-3.435 0-1.348.254-2.495.761-3.44.507-.947 1.195-1.667 2.064-2.162.87-.5 1.848-.749 2.934-.749.717 0 1.381.1 1.993.302a5.059 5.059 0 0 1 1.636.882c.474.382.861.85 1.159 1.406a5.25 5.25 0 0 1 .579 1.908zM176.049 96V83.636h2.614v5.452h.163l4.449-5.452h3.133l-4.588 5.536L186.462 96h-3.127l-3.387-5.083-1.285 1.57V96zm13.955 0V83.636h8.331v2.156h-5.717v2.946h5.288v2.155h-5.288v2.952h5.741V96zm12.01-12.364 2.493 4.214h.097l2.505-4.214h2.952l-3.773 6.182L210.146 96h-3.007l-2.535-4.22h-.097L201.972 96h-2.994l3.869-6.182-3.797-6.182zm18.4 4.329h-2.644a2.578 2.578 0 0 0-.296-.912 2.318 2.318 0 0 0-.573-.688 2.528 2.528 0 0 0-.809-.435c-.302-.1-.63-.15-.984-.15-.64 0-1.198.158-1.673.476-.474.314-.843.773-1.104 1.377-.262.6-.393 1.328-.393 2.185 0 .882.131 1.622.393 2.222.265.6.636 1.052 1.111 1.358.474.306 1.024.459 1.648.459.35 0 .674-.046.972-.139.301-.093.569-.227.802-.404.234-.181.427-.4.58-.658.157-.258.266-.552.326-.882l2.644.012a4.94 4.94 0 0 1-1.606 3.049c-.454.41-.998.736-1.63.978-.627.237-1.338.356-2.131.356-1.102 0-2.088-.25-2.958-.748-.865-.5-1.549-1.222-2.052-2.168-.499-.946-.749-2.09-.749-3.435 0-1.348.254-2.495.761-3.44.507-.947 1.195-1.667 2.064-2.162.87-.5 1.848-.749 2.934-.749.717 0 1.381.1 1.993.302a5.059 5.059 0 0 1 1.636.882c.474.382.861.85 1.159 1.406a5.25 5.25 0 0 1 .579 1.908zM221.439 96V83.636h2.614v5.102h5.306v-5.102h2.608V96h-2.608v-5.107h-5.306V96zm13.964 0h-2.801l4.268-12.364h3.369L244.501 96H241.7l-3.097-9.538h-.097zm-.175-4.86h6.617v2.04h-6.617zm20.252-7.504V96h-2.258l-5.378-7.782h-.091V96h-2.614V83.636h2.294l5.337 7.776h.108v-7.776zm9.338 3.997a2.695 2.695 0 0 0-.356-.779 2.204 2.204 0 0 0-.561-.58 2.416 2.416 0 0 0-.749-.368 3.169 3.169 0 0 0-.924-.127c-.632 0-1.187.157-1.666.471-.475.314-.845.771-1.111 1.37-.265.596-.398 1.325-.398 2.186s.131 1.594.392 2.198c.262.603.632 1.064 1.111 1.382.479.314 1.044.47 1.696.47.592 0 1.097-.104 1.516-.313.422-.213.744-.513.966-.9.225-.386.338-.843.338-1.37l.531.079h-3.188v-1.969h5.174v1.558c0 1.087-.229 2.02-.688 2.801a4.693 4.693 0 0 1-1.896 1.8c-.805.418-1.726.627-2.765.627-1.159 0-2.177-.255-3.054-.767-.878-.515-1.562-1.245-2.053-2.191-.487-.95-.73-2.077-.73-3.38 0-1.003.145-1.896.434-2.681.294-.789.705-1.457 1.232-2.004a5.32 5.32 0 0 1 1.841-1.25 5.965 5.965 0 0 1 2.276-.429c.7 0 1.352.103 1.956.308a5.208 5.208 0 0 1 1.606.857c.471.37.855.811 1.153 1.322a4.48 4.48 0 0 1 .573 1.679zM268.703 96V83.636h8.331v2.156h-5.717v2.946h5.288v2.155h-5.288v2.952h5.741V96z" fill="#e47128"/><path d="m56.772 32.606.375-.694c-3.479-1.852-7.057-3.068-10.656-3.582a31.934 31.934 0 0 0-4.464-.319c-11.872 0-22.494 7.142-26.43 17.77l3.82 1.416c3.348-9.038 12.434-15.11 22.61-15.11 1.282 0 2.59.093 3.89.277 6.9.986 13.529 4.75 19.704 11.186l2.25-2.16c-3.039-3.247-6.747-6.43-11.1-8.784z" fill="#62aeb2"/><path d="M28.913 80.193C18.68 75.435 12.067 65.374 12.067 54.56c0-5.47 1.603-10.764 4.636-15.31a28.849 28.849 0 0 1 4.05-4.822l1.879 1.962a26.089 26.089 0 0 0-3.67 4.367 24.791 24.791 0 0 0-4.179 13.803c0 9.91 5.853 18.788 15.275 23.168l-1.145 2.464zm49.852-22.296-1.178-2.748a41.756 41.756 0 0 0-.436-.832c-2.063 3.906-12.915 22.98-30.758 25.527-1.457.209-2.96.685-4.38.685-4.156-.001-8.142-.876-11.847-2.6l-1.36 2.493c4.134 1.924 8.577 2.9 13.209 2.9 1.57 0 3.182-.116 4.79-.345 17.216-2.46 28.082-18.205 32.084-25.134z" fill="#62aeb2"/><path d="M82.54 71.173c-3.491 4.743-7.343 8.85-11.476 12.205l.997 1.228c4.087-3.318 7.905-7.344 11.375-11.98 7.102 9.69 18.919 21.185 36.048 23.63l.405-2.84c-17.507-2.5-29.233-14.879-36.205-25.414-.328-.497-1.145 3.171-1.145 3.171z" fill="#e47128"/><path d="M128.292 82.982a33.214 33.214 0 0 1-6.871-.268c-5.26-.752-10.358-2.852-15.152-6.242l-1.491 2.107c5.132 3.629 10.608 5.88 16.278 6.69a36.27 36.27 0 0 0 5.115.367c.71 0 1.417-.027 2.121-.07z" fill="#e5ad24"/><path d="m80.128 57.313-1.364.584-1.177-2.748c-.883-1.737-4.189-7.855-9.716-13.76l-2.25 2.16c4.848 5.051 7.76 10.058 8.787 11.977l4.135 7.216 3.535-2.027z" fill="#e47128"/><path d="M126.172 80.685a31.09 31.09 0 0 1-4.415-.317c-18.416-2.63-29.19-21.327-31.162-25.05l2.849-1.51c1.13 2.133 11.542 20.908 28.77 23.368 1.315.189 2.645.285 3.957.285v3.224z" fill="#62aeb2"/><path d="M151.831 47.377c-1.227-3.985-3.517-7.663-6.622-10.635-4.069-3.892-9.237-6.38-14.944-7.195l.522-3.654c6.475.924 12.344 3.754 16.973 8.183 3.559 3.406 6.186 7.63 7.598 12.215z" fill="#00878f"/><path d="m102.534 35.637-1.739-1.98c6.264-5.501 13.079-8.81 20.257-9.834a36.22 36.22 0 0 1 5.105-.365c8.742 0 16.931 3.23 23.06 9.094l-1.822 1.905c-5.636-5.393-13.178-8.363-21.237-8.363-1.568 0-3.16.115-4.733.34-6.663.95-13.019 4.047-18.891 9.203z" fill="#00878f"/><path d="M89.144 61.31 80 56.96l2.174-4.57c1.413-2.969 6.75-13.296 16.15-21.547l3.804-3.34 6.68 7.61-3.805 3.34c-8.15 7.153-12.83 16.487-13.685 18.286l-2.175 4.571z" fill="#e5ad24"/><path d="M11.752 66.769A30.229 30.229 0 0 1 9.208 54.56c0-8.412 3.399-16.296 9.57-22.199a32.658 32.658 0 0 1 7.233-5.228l1.486 2.792a29.505 29.505 0 0 0-6.532 4.723c-5.542 5.3-8.595 12.372-8.595 19.912 0 3.808.767 7.487 2.279 10.938l-2.897 1.27z" fill="#00878f"/><path d="m22.647 36.409-1.91-1.998c5.652-5.404 13.213-8.38 21.29-8.38 1.575 0 3.172.114 4.746.339 3.857.55 7.663 1.831 11.313 3.805l-1.314 2.43c-3.362-1.817-6.858-2.995-10.39-3.5a30.97 30.97 0 0 0-4.354-.31c-7.363 0-14.245 2.704-19.38 7.614zM3.724 54.561H2.037c0-10.387 4.185-20.111 11.785-27.38l1.167 1.22C7.724 35.348 3.723 44.638 3.723 54.56z" fill="#e5ad24"/><path d="M70.49 25.72c-6.818-5.45-14.29-8.786-22.21-9.917a44.413 44.413 0 0 0-6.252-.446c-8.205 0-16.083 2.307-22.78 6.673l-1.229-1.885c7.064-4.604 15.367-7.038 24.01-7.038 2.179 0 4.39.158 6.569.469 8.324 1.188 16.162 4.683 23.297 10.387zm15.824 14.604-4.44-3.132c7.102-10.065 19.37-22.605 37.49-25.192l.768 5.378c-16.202 2.314-27.333 13.755-33.819 22.946z" fill="#00878f"/><path d="m91.396 40.973-3.141-2.375c6.214-8.221 16.804-18.476 31.96-20.638a42.137 42.137 0 0 1 5.942-.425c5.109 0 10.057.932 14.707 2.77l-1.446 3.662c-4.188-1.655-8.649-2.494-13.26-2.494-1.786 0-3.598.13-5.386.385-13.829 1.973-23.608 11.483-29.376 19.115z" fill="#62aeb2"/><path d="m85.064 47.383-4.395-1.788 1.307-3.21.112-.179c5.674-8.98 18.115-24.461 37.697-27.255a45.215 45.215 0 0 1 6.372-.455v4.745c-1.89 0-3.809.137-5.701.407-16.711 2.384-27.83 14.823-34.245 24.916l-1.147 2.82z" fill="#62aeb2"/><path d="m84.989 42.52-2.274-2.789c-3.778-5.355-8.01-9.921-12.576-13.572l2.107-2.636c4.8 3.838 9.24 8.62 13.193 14.213l2.164 2.65z" fill="#62aeb2"/><path d="M154.819 26.7c-7.644-7.315-17.823-11.343-28.661-11.343-2.072 0-4.176.15-6.251.446l-.317-2.228a46.658 46.658 0 0 1 6.568-.468c11.421 0 22.153 4.25 30.217 11.966z" fill="#e47128"/><g fill="#00878f"><path d="m47.731 89.471-.82-5.741c22.956-3.277 34.394-30.016 34.507-30.286.509-1.222 12.779-30.05 39.038-33.797l.819 5.742c-23.026 3.286-34.391 30.015-34.504 30.285-.51 1.226-12.788 30.049-39.04 33.797z"/><path d="m23.61 83.667 2.519-4.333c6.178 3.59 13.338 4.929 20.707 3.874l.71 4.959c4.8-.685 9.49-2.329 13.938-4.884l-4.2-7.315c-3.518 2.02-7.196 3.315-10.933 3.848a30.787 30.787 0 0 1-4.338.312c-7.305 0-14.134-2.685-19.23-7.56-2.467-2.362-4.391-5.097-5.719-8.127l-7.241 3.172c1.729 3.945 4.25 7.564 7.494 10.667l-.365.381a35.279 35.279 0 0 0 6.659 5.006z"/><path d="M42.015 90.77c-10.06 0-19.502-3.735-26.588-10.514l1.592-1.664c6.655 6.368 15.532 9.875 24.993 9.875 1.824 0 3.68-.133 5.518-.396 18.932-2.704 30.375-18.724 35.526-28.073l1.307-3.092 2.122.896-1.382 3.254c-5.344 9.717-17.29 26.445-37.247 29.294a41.47 41.47 0 0 1-5.841.42z"/><path d="M42.015 97c-11.675-.002-22.646-4.35-30.894-12.245l2.916-3.047c7.46 7.14 17.395 11.072 27.976 11.074 2.03 0 4.09-.148 6.127-.44 7.891-1.127 15.324-4.487 22.093-9.987l2.66 3.273c-7.371 5.989-15.498 9.653-24.156 10.89-2.233.32-4.495.482-6.722.482z"/></g><path d="m48.328 93.646-.522-3.653c17.007-2.428 28.259-15.082 34.709-25.283.197-.343 1.934-3.356 2.6-4.62l3.266 1.716c-.737 1.4-2.61 4.644-2.689 4.781l-.037.063c-6.863 10.864-18.91 24.366-37.328 26.996z" fill="#e5ad24"/><path d="M23.745 83.437C13.156 77.289 6.835 66.494 6.835 54.56c0-1.736.137-3.477.406-5.174l2.603.414a30.506 30.506 0 0 0-.373 4.76c0 10.982 5.83 20.926 15.597 26.596l-1.323 2.28z" fill="#62aeb2"/><path d="m11.044 49.99-5-.793c1.447-9.118 6.487-17.175 14.192-22.686 7.826-5.598 17.57-7.907 27.445-6.498a38.63 38.63 0 0 1 6.584 1.542l-1.58 4.81a33.651 33.651 0 0 0-5.72-1.34c-17.52-2.494-33.303 8.467-35.921 24.965z" fill="#e47128"/><path d="M10.392 85.517C5.775 81.101 2.279 75.913 0 70.097l5.89-2.308c1.942 4.954 4.928 9.38 8.875 13.157z" fill="#e5ad24"/><path d="M42.015 94.1c-10.925-.002-21.184-4.064-28.89-11.44-7.016-6.713-11.27-15.652-11.98-25.17l-.004-.068-.104-2.792 3.687-.138.103 2.758c.65 8.594 4.502 16.67 10.849 22.744 7.017 6.715 16.37 10.414 26.336 10.415 1.916 0 3.864-.14 5.793-.416l.523 3.653a44.78 44.78 0 0 1-6.313.453z" fill="#62aeb2"/><path d="M58.958 81.198 57.812 79.2l.998-.573c13.024-7.476 20.3-21.769 21.625-24.558l.495-1.04 2.08.99-.495 1.04c-1.378 2.897-8.94 17.748-22.558 25.565z" fill="#e5ad24"/><path d="M87.73 53.048c-.115-.276-.936-2.213-2.498-5.045l.586-.323c-5.432-9.858-17.572-26.826-37.845-29.72a42.174 42.174 0 0 0-5.946-.425v3.937c1.787 0 3.6.13 5.389.386 2.192.313 4.278.815 6.268 1.462l-1.44 4.379c18.713 6.155 28.124 28.158 28.215 28.374.518 1.247 13.013 30.595 39.85 34.425l1.112-7.795c-22.36-3.192-33.582-29.395-33.69-29.655z" fill="#00878f"/><path d="M161.604 54.561h-3.164c0-8.711-3.843-17.042-10.545-22.856-7.2-6.246-16.969-9.022-26.807-7.62l-.446-3.132c10.744-1.534 21.433 1.515 29.326 8.362 7.395 6.415 11.636 15.617 11.636 25.246zM46.578 41.293h-8.555v26.542h8.555z" fill="#e5ad24"/><path d="M55.57 50.287H29.03v8.556h26.54z" fill="#00878f"/><path d="m169.45 58.428-3.381-.314c.108-1.167.163-2.363.163-3.553 0-10.414-4.194-20.162-11.809-27.448l2.348-2.453c8.29 7.932 12.857 18.551 12.857 29.9a42.372 42.372 0 0 1-.178 3.868z" fill="#62aeb2"/><path d="m157.817 60.404-2.207-.44a27.99 27.99 0 0 0 .534-5.45c0-7.665-3.101-14.854-8.733-20.243l1.555-1.626c6.08 5.818 9.428 13.585 9.428 21.87a30.228 30.228 0 0 1-.577 5.889z" fill="#00878f"/><path d="m153.952 60.945-5.108-1.302c.42-1.65.633-3.36.634-5.082 0-12.063-10.461-21.876-23.32-21.876a27.23 27.23 0 0 0-4.813.437l-.951-5.186a31.746 31.746 0 0 1 5.763-.523c15.766 0 28.593 12.179 28.593 27.148a25.9 25.9 0 0 1-.798 6.384z" fill="#e47128"/><path d="m111.711 33.874-.607-1.096C99 39.488 91.914 52.623 90.617 55.188l-1.282 2.609-1.355-.667-.56 1.241 4.81 2.16 2.156-4.802c1.269-2.35 11.116-19.688 26.962-22.607l-.477-2.588c-3.111.574-6.186 1.694-9.16 3.34z" fill="#00878f"/><path d="M126.172 91.99a42.68 42.68 0 0 1-6.016-.431c-8.95-1.279-17.254-5.437-24.682-12.36l3.235-3.471c6.705 6.25 14.147 9.995 22.118 11.134 2.13.304 4.27.42 6.372.37l.111 4.744c-.38.01-.758.014-1.138.014z" fill="#62aeb2"/></svg>